<mxfile host="app.diagrams.net" agent="Mozilla/5.0 (Windows NT 10.0; Win64; x64) AppleWebKit/537.36 (KHTML, like Gecko) Chrome/130.0.0.0 Safari/537.36" version="24.8.3">
  <diagram id="R2lEEEUBdFMjLlhIrx00" name="Page-1">
    <mxGraphModel dx="3183" dy="1264" grid="1" gridSize="10" guides="1" tooltips="1" connect="1" arrows="1" fold="1" page="1" pageScale="1" pageWidth="850" pageHeight="1100" math="0" shadow="0" extFonts="Permanent Marker^https://fonts.googleapis.com/css?family=Permanent+Marker">
      <root>
        <mxCell id="0" />
        <mxCell id="1" parent="0" />
        <mxCell id="7z_oLGSOw27XhimUd1Lt-2" value="&lt;font face=&quot;Architects Daughter&quot; style=&quot;font-size: 18px;&quot;&gt;&lt;b&gt;Student&lt;/b&gt;&lt;/font&gt;" style="rounded=0;whiteSpace=wrap;html=1;" parent="1" vertex="1">
          <mxGeometry x="660" y="300" width="120" height="60" as="geometry" />
        </mxCell>
        <mxCell id="xze8CUG9NXCSpc5zPzv0-1" value="&lt;font face=&quot;Architects Daughter&quot; style=&quot;font-size: 18px;&quot;&gt;&lt;b&gt;Department&lt;/b&gt;&lt;/font&gt;" style="rounded=0;whiteSpace=wrap;html=1;" parent="1" vertex="1">
          <mxGeometry x="1290" y="330" width="120" height="60" as="geometry" />
        </mxCell>
        <mxCell id="xze8CUG9NXCSpc5zPzv0-2" value="&lt;font data-font-src=&quot;https://fonts.googleapis.com/css?family=Architects+Daughter&quot; face=&quot;Architects Daughter&quot; style=&quot;font-size: 17px;&quot;&gt;&lt;b&gt;&lt;u&gt;St_id&lt;/u&gt;&lt;/b&gt;&lt;/font&gt;" style="ellipse;whiteSpace=wrap;html=1;" parent="1" vertex="1">
          <mxGeometry x="720" y="50" width="105" height="70" as="geometry" />
        </mxCell>
        <mxCell id="xze8CUG9NXCSpc5zPzv0-3" value="" style="endArrow=none;html=1;rounded=0;exitX=0.5;exitY=1;exitDx=0;exitDy=0;sketch=1;curveFitting=1;jiggle=2;entryX=0.5;entryY=0;entryDx=0;entryDy=0;" parent="1" source="xze8CUG9NXCSpc5zPzv0-2" target="7z_oLGSOw27XhimUd1Lt-2" edge="1">
          <mxGeometry width="50" height="50" relative="1" as="geometry">
            <mxPoint x="990" y="520" as="sourcePoint" />
            <mxPoint x="720" y="300" as="targetPoint" />
          </mxGeometry>
        </mxCell>
        <mxCell id="xze8CUG9NXCSpc5zPzv0-4" value="&lt;span id=&quot;docs-internal-guid-c1091824-7fff-c988-b4a2-2d547d7a1708&quot;&gt;&lt;span style=&quot;background-color: transparent; font-variant-numeric: normal; font-variant-east-asian: normal; font-variant-alternates: normal; font-variant-position: normal; vertical-align: baseline; white-space-collapse: preserve;&quot;&gt;&lt;font style=&quot;font-size: 17px;&quot; data-font-src=&quot;https://fonts.googleapis.com/css?family=Architects+Daughter&quot; face=&quot;Architects Daughter&quot;&gt;&lt;b&gt;studentName&lt;/b&gt;&lt;/font&gt;&lt;/span&gt;&lt;/span&gt;" style="ellipse;whiteSpace=wrap;html=1;" parent="1" vertex="1">
          <mxGeometry x="440" y="220" width="105" height="70" as="geometry" />
        </mxCell>
        <mxCell id="xze8CUG9NXCSpc5zPzv0-5" value="" style="endArrow=none;html=1;rounded=0;entryX=0.5;entryY=0;entryDx=0;entryDy=0;sketch=1;curveFitting=1;jiggle=2;exitX=1;exitY=0.5;exitDx=0;exitDy=0;" parent="1" source="xze8CUG9NXCSpc5zPzv0-4" target="7z_oLGSOw27XhimUd1Lt-2" edge="1">
          <mxGeometry width="50" height="50" relative="1" as="geometry">
            <mxPoint x="530" y="245" as="sourcePoint" />
            <mxPoint x="720" y="360" as="targetPoint" />
          </mxGeometry>
        </mxCell>
        <mxCell id="xze8CUG9NXCSpc5zPzv0-6" value="&lt;span id=&quot;docs-internal-guid-c1091824-7fff-c988-b4a2-2d547d7a1708&quot;&gt;&lt;span style=&quot;background-color: transparent; font-variant-numeric: normal; font-variant-east-asian: normal; font-variant-alternates: normal; font-variant-position: normal; vertical-align: baseline; white-space-collapse: preserve;&quot;&gt;&lt;font style=&quot;font-size: 17px;&quot; data-font-src=&quot;https://fonts.googleapis.com/css?family=Architects+Daughter&quot; face=&quot;Architects Daughter&quot;&gt;&lt;b&gt;FName&lt;/b&gt;&lt;/font&gt;&lt;/span&gt;&lt;/span&gt;" style="ellipse;whiteSpace=wrap;html=1;" parent="1" vertex="1">
          <mxGeometry x="250" y="90" width="90" height="60" as="geometry" />
        </mxCell>
        <mxCell id="xze8CUG9NXCSpc5zPzv0-8" value="&lt;span id=&quot;docs-internal-guid-c1091824-7fff-c988-b4a2-2d547d7a1708&quot;&gt;&lt;span style=&quot;background-color: transparent; font-variant-numeric: normal; font-variant-east-asian: normal; font-variant-alternates: normal; font-variant-position: normal; vertical-align: baseline; white-space-collapse: preserve;&quot;&gt;&lt;font style=&quot;font-size: 17px;&quot; data-font-src=&quot;https://fonts.googleapis.com/css?family=Architects+Daughter&quot; face=&quot;Architects Daughter&quot;&gt;&lt;b&gt;LName&lt;/b&gt;&lt;/font&gt;&lt;/span&gt;&lt;/span&gt;" style="ellipse;whiteSpace=wrap;html=1;" parent="1" vertex="1">
          <mxGeometry x="420" y="90" width="90" height="60" as="geometry" />
        </mxCell>
        <mxCell id="xze8CUG9NXCSpc5zPzv0-9" value="" style="endArrow=none;html=1;rounded=0;entryX=0.5;entryY=0;entryDx=0;entryDy=0;exitX=0.5;exitY=1;exitDx=0;exitDy=0;sketch=1;curveFitting=1;jiggle=2;" parent="1" source="xze8CUG9NXCSpc5zPzv0-8" target="xze8CUG9NXCSpc5zPzv0-4" edge="1">
          <mxGeometry width="50" height="50" relative="1" as="geometry">
            <mxPoint x="740" y="460" as="sourcePoint" />
            <mxPoint x="790" y="410" as="targetPoint" />
          </mxGeometry>
        </mxCell>
        <mxCell id="xze8CUG9NXCSpc5zPzv0-10" value="" style="endArrow=none;html=1;rounded=0;entryX=0.5;entryY=0;entryDx=0;entryDy=0;exitX=1;exitY=1;exitDx=0;exitDy=0;sketch=1;curveFitting=1;jiggle=2;" parent="1" source="xze8CUG9NXCSpc5zPzv0-6" target="xze8CUG9NXCSpc5zPzv0-4" edge="1">
          <mxGeometry width="50" height="50" relative="1" as="geometry">
            <mxPoint x="740" y="460" as="sourcePoint" />
            <mxPoint x="790" y="410" as="targetPoint" />
          </mxGeometry>
        </mxCell>
        <mxCell id="xze8CUG9NXCSpc5zPzv0-11" value="&lt;font data-font-src=&quot;https://fonts.googleapis.com/css?family=Architects+Daughter&quot; face=&quot;Architects Daughter&quot; style=&quot;font-size: 17px;&quot;&gt;&lt;b&gt;St_age&lt;/b&gt;&lt;/font&gt;" style="ellipse;whiteSpace=wrap;html=1;" parent="1" vertex="1">
          <mxGeometry x="555" y="100" width="105" height="70" as="geometry" />
        </mxCell>
        <mxCell id="xze8CUG9NXCSpc5zPzv0-12" value="&lt;span id=&quot;docs-internal-guid-c1091824-7fff-c988-b4a2-2d547d7a1708&quot;&gt;&lt;span style=&quot;background-color: transparent; font-variant-numeric: normal; font-variant-east-asian: normal; font-variant-alternates: normal; font-variant-position: normal; vertical-align: baseline; white-space-collapse: preserve;&quot;&gt;&lt;font style=&quot;font-size: 17px;&quot; data-font-src=&quot;https://fonts.googleapis.com/css?family=Architects+Daughter&quot; face=&quot;Architects Daughter&quot;&gt;&lt;b&gt;st_address&lt;/b&gt;&lt;/font&gt;&lt;/span&gt;&lt;/span&gt;" style="ellipse;whiteSpace=wrap;html=1;" parent="1" vertex="1">
          <mxGeometry x="795" y="140" width="105" height="70" as="geometry" />
        </mxCell>
        <mxCell id="xze8CUG9NXCSpc5zPzv0-13" value="" style="endArrow=none;html=1;rounded=0;entryX=0.5;entryY=1;entryDx=0;entryDy=0;exitX=0.5;exitY=0;exitDx=0;exitDy=0;sketch=1;curveFitting=1;jiggle=2;" parent="1" source="7z_oLGSOw27XhimUd1Lt-2" target="xze8CUG9NXCSpc5zPzv0-11" edge="1">
          <mxGeometry width="50" height="50" relative="1" as="geometry">
            <mxPoint x="890" y="390" as="sourcePoint" />
            <mxPoint x="940" y="340" as="targetPoint" />
          </mxGeometry>
        </mxCell>
        <mxCell id="xze8CUG9NXCSpc5zPzv0-14" value="" style="endArrow=none;html=1;rounded=0;entryX=0.5;entryY=1;entryDx=0;entryDy=0;exitX=0.5;exitY=0;exitDx=0;exitDy=0;sketch=1;curveFitting=1;jiggle=2;" parent="1" source="7z_oLGSOw27XhimUd1Lt-2" target="xze8CUG9NXCSpc5zPzv0-12" edge="1">
          <mxGeometry width="50" height="50" relative="1" as="geometry">
            <mxPoint x="890" y="390" as="sourcePoint" />
            <mxPoint x="940" y="340" as="targetPoint" />
          </mxGeometry>
        </mxCell>
        <mxCell id="xze8CUG9NXCSpc5zPzv0-15" value="&lt;span id=&quot;docs-internal-guid-0de33933-7fff-8635-5738-5373e45799ed&quot;&gt;&lt;span style=&quot;background-color: transparent; font-variant-numeric: normal; font-variant-east-asian: normal; font-variant-alternates: normal; font-variant-position: normal; vertical-align: baseline; white-space-collapse: preserve;&quot;&gt;&lt;font data-font-src=&quot;https://fonts.googleapis.com/css?family=Architects+Daughter&quot; face=&quot;Architects Daughter&quot; style=&quot;font-size: 17px;&quot;&gt;&lt;b&gt;&lt;u&gt;dept_id&lt;/u&gt;&lt;/b&gt;&lt;/font&gt;&lt;/span&gt;&lt;/span&gt;" style="ellipse;whiteSpace=wrap;html=1;" parent="1" vertex="1">
          <mxGeometry x="1320" y="150" width="105" height="70" as="geometry" />
        </mxCell>
        <mxCell id="xze8CUG9NXCSpc5zPzv0-16" value="&lt;span id=&quot;docs-internal-guid-887ece5b-7fff-2531-cd6d-e7d68904abee&quot;&gt;&lt;span style=&quot;background-color: transparent; font-variant-numeric: normal; font-variant-east-asian: normal; font-variant-alternates: normal; font-variant-position: normal; vertical-align: baseline; white-space-collapse: preserve;&quot;&gt;&lt;font face=&quot;Architects Daughter&quot; style=&quot;font-size: 17px;&quot;&gt;&lt;b&gt;dep_name&lt;/b&gt;&lt;/font&gt;&lt;/span&gt;&lt;/span&gt;" style="ellipse;whiteSpace=wrap;html=1;" parent="1" vertex="1">
          <mxGeometry x="1520" y="180" width="105" height="70" as="geometry" />
        </mxCell>
        <mxCell id="xze8CUG9NXCSpc5zPzv0-17" value="" style="endArrow=none;html=1;rounded=0;entryX=0.5;entryY=1;entryDx=0;entryDy=0;exitX=0.5;exitY=0;exitDx=0;exitDy=0;sketch=1;curveFitting=1;jiggle=2;" parent="1" source="xze8CUG9NXCSpc5zPzv0-1" target="xze8CUG9NXCSpc5zPzv0-15" edge="1">
          <mxGeometry width="50" height="50" relative="1" as="geometry">
            <mxPoint x="1090" y="480" as="sourcePoint" />
            <mxPoint x="1140" y="430" as="targetPoint" />
          </mxGeometry>
        </mxCell>
        <mxCell id="xze8CUG9NXCSpc5zPzv0-18" value="" style="endArrow=none;html=1;rounded=0;entryX=0.5;entryY=0;entryDx=0;entryDy=0;exitX=0;exitY=1;exitDx=0;exitDy=0;sketch=1;curveFitting=1;jiggle=2;" parent="1" source="xze8CUG9NXCSpc5zPzv0-16" target="xze8CUG9NXCSpc5zPzv0-1" edge="1">
          <mxGeometry width="50" height="50" relative="1" as="geometry">
            <mxPoint x="1562.5" y="250" as="sourcePoint" />
            <mxPoint x="1340" y="460" as="targetPoint" />
          </mxGeometry>
        </mxCell>
        <mxCell id="xze8CUG9NXCSpc5zPzv0-22" value="&lt;font face=&quot;Architects Daughter&quot; style=&quot;font-size: 18px;&quot;&gt;&lt;b&gt;Course&lt;/b&gt;&lt;/font&gt;" style="rounded=0;whiteSpace=wrap;html=1;" parent="1" vertex="1">
          <mxGeometry x="640" y="745" width="120" height="60" as="geometry" />
        </mxCell>
        <mxCell id="xze8CUG9NXCSpc5zPzv0-23" value="&lt;span id=&quot;docs-internal-guid-43af0681-7fff-e2c8-2b23-7273ec991136&quot;&gt;&lt;span style=&quot;background-color: transparent; font-variant-numeric: normal; font-variant-east-asian: normal; font-variant-alternates: normal; font-variant-position: normal; vertical-align: baseline; white-space-collapse: preserve;&quot;&gt;&lt;font data-font-src=&quot;https://fonts.googleapis.com/css?family=Architects+Daughter&quot; face=&quot;Architects Daughter&quot; style=&quot;font-size: 17px;&quot;&gt;&lt;b&gt;crs_id&lt;/b&gt;&lt;/font&gt;&lt;/span&gt;&lt;/span&gt;" style="ellipse;whiteSpace=wrap;html=1;" parent="1" vertex="1">
          <mxGeometry x="850" y="875" width="105" height="70" as="geometry" />
        </mxCell>
        <mxCell id="xze8CUG9NXCSpc5zPzv0-24" value="&lt;span id=&quot;docs-internal-guid-01ee29d6-7fff-484d-0e62-19239c2329ea&quot;&gt;&lt;span style=&quot;background-color: transparent; font-variant-numeric: normal; font-variant-east-asian: normal; font-variant-alternates: normal; font-variant-position: normal; vertical-align: baseline; white-space-collapse: preserve;&quot;&gt;&lt;font face=&quot;Architects Daughter&quot; style=&quot;font-size: 17px;&quot;&gt;&lt;b&gt;crs_name&lt;/b&gt;&lt;/font&gt;&lt;/span&gt;&lt;/span&gt;" style="ellipse;whiteSpace=wrap;html=1;" parent="1" vertex="1">
          <mxGeometry x="720" y="925" width="105" height="70" as="geometry" />
        </mxCell>
        <mxCell id="xze8CUG9NXCSpc5zPzv0-25" value="&lt;span id=&quot;docs-internal-guid-2c935f62-7fff-73f3-4a3a-77eb24b86415&quot;&gt;&lt;span style=&quot;background-color: transparent; font-variant-numeric: normal; font-variant-east-asian: normal; font-variant-alternates: normal; font-variant-position: normal; vertical-align: baseline; white-space-collapse: preserve;&quot;&gt;&lt;font size=&quot;1&quot; data-font-src=&quot;https://fonts.googleapis.com/css?family=Architects+Daughter&quot; face=&quot;Architects Daughter&quot; style=&quot;&quot;&gt;&lt;b style=&quot;font-size: 16px;&quot;&gt;crs_duration&lt;/b&gt;&lt;/font&gt;&lt;/span&gt;&lt;/span&gt;" style="ellipse;whiteSpace=wrap;html=1;" parent="1" vertex="1">
          <mxGeometry x="570" y="935" width="105" height="70" as="geometry" />
        </mxCell>
        <mxCell id="xze8CUG9NXCSpc5zPzv0-27" value="&lt;span id=&quot;docs-internal-guid-6670893b-7fff-c61d-ac6f-b78a9d260510&quot;&gt;&lt;span style=&quot;background-color: transparent; font-variant-numeric: normal; font-variant-east-asian: normal; font-variant-alternates: normal; font-variant-position: normal; vertical-align: baseline; white-space-collapse: preserve;&quot;&gt;&lt;font size=&quot;1&quot; data-font-src=&quot;https://fonts.googleapis.com/css?family=Architects+Daughter&quot; face=&quot;Architects Daughter&quot; style=&quot;&quot;&gt;&lt;b style=&quot;font-size: 13px;&quot;&gt;crs_Description&lt;/b&gt;&lt;/font&gt;&lt;/span&gt;&lt;/span&gt;" style="ellipse;whiteSpace=wrap;html=1;" parent="1" vertex="1">
          <mxGeometry x="465" y="875" width="105" height="70" as="geometry" />
        </mxCell>
        <mxCell id="4iAc5XqQ8IWeMg1gjflS-1" value="" style="endArrow=none;html=1;rounded=0;entryX=0.5;entryY=1;entryDx=0;entryDy=0;exitX=1;exitY=0;exitDx=0;exitDy=0;sketch=1;curveFitting=1;jiggle=2;" edge="1" parent="1" source="xze8CUG9NXCSpc5zPzv0-27" target="xze8CUG9NXCSpc5zPzv0-22">
          <mxGeometry width="50" height="50" relative="1" as="geometry">
            <mxPoint x="780" y="935" as="sourcePoint" />
            <mxPoint x="830" y="885" as="targetPoint" />
          </mxGeometry>
        </mxCell>
        <mxCell id="4iAc5XqQ8IWeMg1gjflS-2" value="" style="endArrow=none;html=1;rounded=0;exitX=0.5;exitY=0;exitDx=0;exitDy=0;sketch=1;curveFitting=1;jiggle=2;" edge="1" parent="1" source="xze8CUG9NXCSpc5zPzv0-25">
          <mxGeometry width="50" height="50" relative="1" as="geometry">
            <mxPoint x="780" y="935" as="sourcePoint" />
            <mxPoint x="700" y="805" as="targetPoint" />
          </mxGeometry>
        </mxCell>
        <mxCell id="4iAc5XqQ8IWeMg1gjflS-3" value="" style="endArrow=none;html=1;rounded=0;entryX=0.5;entryY=1;entryDx=0;entryDy=0;exitX=0.5;exitY=0;exitDx=0;exitDy=0;sketch=1;curveFitting=1;jiggle=2;" edge="1" parent="1" source="xze8CUG9NXCSpc5zPzv0-24" target="xze8CUG9NXCSpc5zPzv0-22">
          <mxGeometry width="50" height="50" relative="1" as="geometry">
            <mxPoint x="780" y="935" as="sourcePoint" />
            <mxPoint x="830" y="885" as="targetPoint" />
          </mxGeometry>
        </mxCell>
        <mxCell id="4iAc5XqQ8IWeMg1gjflS-4" value="" style="endArrow=none;html=1;rounded=0;entryX=0.5;entryY=1;entryDx=0;entryDy=0;exitX=0;exitY=0;exitDx=0;exitDy=0;sketch=1;curveFitting=1;jiggle=2;" edge="1" parent="1" source="xze8CUG9NXCSpc5zPzv0-23" target="xze8CUG9NXCSpc5zPzv0-22">
          <mxGeometry width="50" height="50" relative="1" as="geometry">
            <mxPoint x="780" y="935" as="sourcePoint" />
            <mxPoint x="830" y="885" as="targetPoint" />
          </mxGeometry>
        </mxCell>
        <mxCell id="4iAc5XqQ8IWeMg1gjflS-5" value="&lt;font data-font-src=&quot;https://fonts.googleapis.com/css?family=Architects+Daughter&quot; face=&quot;Architects Daughter&quot; style=&quot;font-size: 17px;&quot;&gt;&lt;b&gt;take&lt;/b&gt;&lt;/font&gt;" style="rhombus;whiteSpace=wrap;html=1;" vertex="1" parent="1">
          <mxGeometry x="660" y="480" width="80" height="80" as="geometry" />
        </mxCell>
        <mxCell id="4iAc5XqQ8IWeMg1gjflS-6" value="" style="endArrow=none;html=1;rounded=0;entryX=0.5;entryY=1;entryDx=0;entryDy=0;exitX=0.5;exitY=0;exitDx=0;exitDy=0;" edge="1" parent="1" source="4iAc5XqQ8IWeMg1gjflS-5" target="7z_oLGSOw27XhimUd1Lt-2">
          <mxGeometry width="50" height="50" relative="1" as="geometry">
            <mxPoint x="800" y="580" as="sourcePoint" />
            <mxPoint x="850" y="530" as="targetPoint" />
          </mxGeometry>
        </mxCell>
        <mxCell id="4iAc5XqQ8IWeMg1gjflS-7" value="" style="endArrow=none;html=1;rounded=0;entryX=0.5;entryY=1;entryDx=0;entryDy=0;exitX=0.5;exitY=0;exitDx=0;exitDy=0;" edge="1" parent="1" source="xze8CUG9NXCSpc5zPzv0-22" target="4iAc5XqQ8IWeMg1gjflS-5">
          <mxGeometry width="50" height="50" relative="1" as="geometry">
            <mxPoint x="705" y="610" as="sourcePoint" />
            <mxPoint x="830" y="460" as="targetPoint" />
          </mxGeometry>
        </mxCell>
        <mxCell id="4iAc5XqQ8IWeMg1gjflS-8" value="&lt;font data-font-src=&quot;https://fonts.googleapis.com/css?family=Architects+Daughter&quot; face=&quot;Architects Daughter&quot; style=&quot;font-size: 17px;&quot;&gt;&lt;b&gt;grade&lt;/b&gt;&lt;/font&gt;" style="ellipse;whiteSpace=wrap;html=1;" vertex="1" parent="1">
          <mxGeometry x="300" y="350" width="105" height="70" as="geometry" />
        </mxCell>
        <mxCell id="4iAc5XqQ8IWeMg1gjflS-9" value="" style="endArrow=none;html=1;rounded=0;entryX=0;entryY=0.5;entryDx=0;entryDy=0;exitX=1;exitY=0.5;exitDx=0;exitDy=0;sketch=1;curveFitting=1;jiggle=2;" edge="1" parent="1" source="4iAc5XqQ8IWeMg1gjflS-8" target="4iAc5XqQ8IWeMg1gjflS-5">
          <mxGeometry width="50" height="50" relative="1" as="geometry">
            <mxPoint x="470" y="560" as="sourcePoint" />
            <mxPoint x="520" y="510" as="targetPoint" />
          </mxGeometry>
        </mxCell>
        <mxCell id="4iAc5XqQ8IWeMg1gjflS-10" value="&lt;font data-font-src=&quot;https://fonts.googleapis.com/css?family=Architects+Daughter&quot; face=&quot;Architects Daughter&quot; style=&quot;font-size: 17px;&quot;&gt;&lt;b&gt;instructor&lt;/b&gt;&lt;/font&gt;" style="rounded=0;whiteSpace=wrap;html=1;" vertex="1" parent="1">
          <mxGeometry x="1290" y="730" width="120" height="60" as="geometry" />
        </mxCell>
        <mxCell id="4iAc5XqQ8IWeMg1gjflS-11" value="&lt;span id=&quot;docs-internal-guid-43af0681-7fff-e2c8-2b23-7273ec991136&quot;&gt;&lt;span style=&quot;background-color: transparent; font-variant-numeric: normal; font-variant-east-asian: normal; font-variant-alternates: normal; font-variant-position: normal; vertical-align: baseline; white-space-collapse: preserve;&quot;&gt;&lt;font data-font-src=&quot;https://fonts.googleapis.com/css?family=Architects+Daughter&quot; face=&quot;Architects Daughter&quot; style=&quot;font-size: 17px;&quot;&gt;&lt;b&gt;crs_id&lt;/b&gt;&lt;/font&gt;&lt;/span&gt;&lt;/span&gt;" style="ellipse;whiteSpace=wrap;html=1;" vertex="1" parent="1">
          <mxGeometry x="1525" y="901" width="105" height="70" as="geometry" />
        </mxCell>
        <mxCell id="4iAc5XqQ8IWeMg1gjflS-12" value="&lt;span id=&quot;docs-internal-guid-5c3fe531-7fff-c0d1-a7ba-443e3d9e94f5&quot;&gt;&lt;span style=&quot;background-color: transparent; font-variant-numeric: normal; font-variant-east-asian: normal; font-variant-alternates: normal; font-variant-position: normal; vertical-align: baseline; white-space-collapse: preserve;&quot;&gt;&lt;font data-font-src=&quot;https://fonts.googleapis.com/css?family=Architects+Daughter&quot; face=&quot;Architects Daughter&quot; style=&quot;font-size: 17px;&quot;&gt;&lt;b&gt;ins_name&lt;/b&gt;&lt;/font&gt;&lt;/span&gt;&lt;/span&gt;" style="ellipse;whiteSpace=wrap;html=1;" vertex="1" parent="1">
          <mxGeometry x="1395" y="951" width="105" height="70" as="geometry" />
        </mxCell>
        <mxCell id="4iAc5XqQ8IWeMg1gjflS-13" value="&lt;span id=&quot;docs-internal-guid-09a0e237-7fff-f44f-eb17-89f87bf53097&quot;&gt;&lt;span style=&quot;background-color: transparent; font-variant-numeric: normal; font-variant-east-asian: normal; font-variant-alternates: normal; font-variant-position: normal; vertical-align: baseline; white-space-collapse: preserve;&quot;&gt;&lt;font data-font-src=&quot;https://fonts.googleapis.com/css?family=Architects+Daughter&quot; face=&quot;Architects Daughter&quot; style=&quot;font-size: 17px;&quot;&gt;&lt;b&gt;ins_salary&lt;/b&gt;&lt;/font&gt;&lt;/span&gt;&lt;/span&gt;" style="ellipse;whiteSpace=wrap;html=1;" vertex="1" parent="1">
          <mxGeometry x="1245" y="961" width="105" height="70" as="geometry" />
        </mxCell>
        <mxCell id="4iAc5XqQ8IWeMg1gjflS-14" value="&lt;span id=&quot;docs-internal-guid-5cb2792e-7fff-752d-8ceb-57f6afc7e692&quot;&gt;&lt;span style=&quot;background-color: transparent; font-variant-numeric: normal; font-variant-east-asian: normal; font-variant-alternates: normal; font-variant-position: normal; vertical-align: baseline; white-space-collapse: preserve;&quot;&gt;&lt;font size=&quot;1&quot; data-font-src=&quot;https://fonts.googleapis.com/css?family=Architects+Daughter&quot; face=&quot;Architects Daughter&quot; style=&quot;&quot;&gt;&lt;b style=&quot;font-size: 16px;&quot;&gt;ins_hourRate&lt;/b&gt;&lt;/font&gt;&lt;/span&gt;&lt;/span&gt;" style="ellipse;whiteSpace=wrap;html=1;" vertex="1" parent="1">
          <mxGeometry x="1140" y="901" width="105" height="70" as="geometry" />
        </mxCell>
        <mxCell id="4iAc5XqQ8IWeMg1gjflS-15" value="&lt;span id=&quot;docs-internal-guid-0b479965-7fff-5143-f25b-c6a6366c7ddf&quot;&gt;&lt;span style=&quot;background-color: transparent; font-variant-numeric: normal; font-variant-east-asian: normal; font-variant-alternates: normal; font-variant-position: normal; vertical-align: baseline; white-space-collapse: preserve;&quot;&gt;&lt;font data-font-src=&quot;https://fonts.googleapis.com/css?family=Architects+Daughter&quot; face=&quot;Architects Daughter&quot; style=&quot;font-size: 17px;&quot;&gt;&lt;b style=&quot;&quot;&gt;ins_address&lt;/b&gt;&lt;/font&gt;&lt;/span&gt;&lt;/span&gt;" style="ellipse;whiteSpace=wrap;html=1;" vertex="1" parent="1">
          <mxGeometry x="1625" y="840" width="105" height="70" as="geometry" />
        </mxCell>
        <mxCell id="4iAc5XqQ8IWeMg1gjflS-16" value="&lt;font data-font-src=&quot;https://fonts.googleapis.com/css?family=Architects+Daughter&quot; face=&quot;Architects Daughter&quot; style=&quot;font-size: 17px;&quot;&gt;&lt;b&gt;&lt;span id=&quot;docs-internal-guid-303cedb4-7fff-a86f-e177-6942cfb34858&quot; style=&quot;&quot;&gt;&lt;span style=&quot;color: rgb(0, 0, 0); background-color: transparent; font-style: normal; font-variant: normal; text-decoration: none; vertical-align: baseline; white-space: pre-wrap;&quot;&gt;ins_bouns&lt;/span&gt;&lt;/span&gt;&lt;br&gt;&lt;/b&gt;&lt;/font&gt;" style="ellipse;whiteSpace=wrap;html=1;" vertex="1" parent="1">
          <mxGeometry x="1020" y="821" width="105" height="70" as="geometry" />
        </mxCell>
        <mxCell id="4iAc5XqQ8IWeMg1gjflS-17" value="" style="endArrow=none;html=1;rounded=0;entryX=0;entryY=0.75;entryDx=0;entryDy=0;exitX=1;exitY=0.5;exitDx=0;exitDy=0;sketch=1;curveFitting=1;jiggle=2;" edge="1" parent="1" source="4iAc5XqQ8IWeMg1gjflS-16" target="4iAc5XqQ8IWeMg1gjflS-10">
          <mxGeometry width="50" height="50" relative="1" as="geometry">
            <mxPoint x="1080" y="740" as="sourcePoint" />
            <mxPoint x="1130" y="690" as="targetPoint" />
          </mxGeometry>
        </mxCell>
        <mxCell id="4iAc5XqQ8IWeMg1gjflS-18" value="" style="endArrow=none;html=1;rounded=0;entryX=0.25;entryY=1;entryDx=0;entryDy=0;exitX=1;exitY=0;exitDx=0;exitDy=0;sketch=1;curveFitting=1;jiggle=2;" edge="1" parent="1" source="4iAc5XqQ8IWeMg1gjflS-14" target="4iAc5XqQ8IWeMg1gjflS-10">
          <mxGeometry width="50" height="50" relative="1" as="geometry">
            <mxPoint x="1080" y="740" as="sourcePoint" />
            <mxPoint x="1130" y="690" as="targetPoint" />
          </mxGeometry>
        </mxCell>
        <mxCell id="4iAc5XqQ8IWeMg1gjflS-19" value="" style="endArrow=none;html=1;rounded=0;entryX=0.5;entryY=1;entryDx=0;entryDy=0;exitX=0.5;exitY=0;exitDx=0;exitDy=0;sketch=1;curveFitting=1;jiggle=2;" edge="1" parent="1" source="4iAc5XqQ8IWeMg1gjflS-13" target="4iAc5XqQ8IWeMg1gjflS-10">
          <mxGeometry width="50" height="50" relative="1" as="geometry">
            <mxPoint x="1080" y="740" as="sourcePoint" />
            <mxPoint x="1130" y="690" as="targetPoint" />
          </mxGeometry>
        </mxCell>
        <mxCell id="4iAc5XqQ8IWeMg1gjflS-20" value="" style="endArrow=none;html=1;rounded=0;entryX=0.75;entryY=1;entryDx=0;entryDy=0;exitX=0.5;exitY=0;exitDx=0;exitDy=0;sketch=1;curveFitting=1;jiggle=2;" edge="1" parent="1" source="4iAc5XqQ8IWeMg1gjflS-12" target="4iAc5XqQ8IWeMg1gjflS-10">
          <mxGeometry width="50" height="50" relative="1" as="geometry">
            <mxPoint x="1080" y="740" as="sourcePoint" />
            <mxPoint x="1130" y="690" as="targetPoint" />
          </mxGeometry>
        </mxCell>
        <mxCell id="4iAc5XqQ8IWeMg1gjflS-21" value="" style="endArrow=none;html=1;rounded=0;entryX=1;entryY=1;entryDx=0;entryDy=0;exitX=0;exitY=0;exitDx=0;exitDy=0;sketch=1;curveFitting=1;jiggle=2;" edge="1" parent="1" source="4iAc5XqQ8IWeMg1gjflS-11" target="4iAc5XqQ8IWeMg1gjflS-10">
          <mxGeometry width="50" height="50" relative="1" as="geometry">
            <mxPoint x="1080" y="740" as="sourcePoint" />
            <mxPoint x="1130" y="690" as="targetPoint" />
          </mxGeometry>
        </mxCell>
        <mxCell id="4iAc5XqQ8IWeMg1gjflS-22" value="" style="endArrow=none;html=1;rounded=0;entryX=1;entryY=0.5;entryDx=0;entryDy=0;exitX=0;exitY=0.5;exitDx=0;exitDy=0;sketch=1;curveFitting=1;jiggle=2;" edge="1" parent="1" source="4iAc5XqQ8IWeMg1gjflS-15" target="4iAc5XqQ8IWeMg1gjflS-10">
          <mxGeometry width="50" height="50" relative="1" as="geometry">
            <mxPoint x="1080" y="740" as="sourcePoint" />
            <mxPoint x="1130" y="690" as="targetPoint" />
          </mxGeometry>
        </mxCell>
        <mxCell id="4iAc5XqQ8IWeMg1gjflS-23" value="&lt;font size=&quot;1&quot; data-font-src=&quot;https://fonts.googleapis.com/css?family=Architects+Daughter&quot; face=&quot;Architects Daughter&quot; style=&quot;&quot;&gt;&lt;b style=&quot;font-size: 16px;&quot;&gt;manage&lt;/b&gt;&lt;/font&gt;" style="rhombus;whiteSpace=wrap;html=1;" vertex="1" parent="1">
          <mxGeometry x="1310" y="510" width="80" height="80" as="geometry" />
        </mxCell>
        <mxCell id="4iAc5XqQ8IWeMg1gjflS-24" value="" style="endArrow=none;html=1;rounded=0;entryX=0.5;entryY=1;entryDx=0;entryDy=0;exitX=0.5;exitY=0;exitDx=0;exitDy=0;sketch=1;curveFitting=1;jiggle=2;" edge="1" parent="1" source="4iAc5XqQ8IWeMg1gjflS-23" target="xze8CUG9NXCSpc5zPzv0-1">
          <mxGeometry width="50" height="50" relative="1" as="geometry">
            <mxPoint x="1190" y="560" as="sourcePoint" />
            <mxPoint x="1240" y="510" as="targetPoint" />
          </mxGeometry>
        </mxCell>
        <mxCell id="4iAc5XqQ8IWeMg1gjflS-25" value="" style="endArrow=none;html=1;rounded=0;entryX=0.5;entryY=1;entryDx=0;entryDy=0;exitX=0.5;exitY=0;exitDx=0;exitDy=0;sketch=1;curveFitting=1;jiggle=2;" edge="1" parent="1" source="4iAc5XqQ8IWeMg1gjflS-10" target="4iAc5XqQ8IWeMg1gjflS-23">
          <mxGeometry width="50" height="50" relative="1" as="geometry">
            <mxPoint x="1190" y="560" as="sourcePoint" />
            <mxPoint x="1240" y="510" as="targetPoint" />
          </mxGeometry>
        </mxCell>
        <mxCell id="4iAc5XqQ8IWeMg1gjflS-26" value="" style="endArrow=none;html=1;rounded=0;entryX=0.25;entryY=1;entryDx=0;entryDy=0;exitX=0;exitY=0;exitDx=0;exitDy=0;sketch=1;curveFitting=1;jiggle=2;" edge="1" parent="1" source="4iAc5XqQ8IWeMg1gjflS-23" target="xze8CUG9NXCSpc5zPzv0-1">
          <mxGeometry width="50" height="50" relative="1" as="geometry">
            <mxPoint x="1190" y="640" as="sourcePoint" />
            <mxPoint x="1240" y="590" as="targetPoint" />
          </mxGeometry>
        </mxCell>
        <mxCell id="4iAc5XqQ8IWeMg1gjflS-27" value="&lt;span id=&quot;docs-internal-guid-887ece5b-7fff-2531-cd6d-e7d68904abee&quot;&gt;&lt;span style=&quot;background-color: transparent; font-variant-numeric: normal; font-variant-east-asian: normal; font-variant-alternates: normal; font-variant-position: normal; vertical-align: baseline; white-space-collapse: preserve;&quot;&gt;&lt;font face=&quot;Architects Daughter&quot; style=&quot;font-size: 17px;&quot;&gt;&lt;b&gt;hiring date&lt;/b&gt;&lt;/font&gt;&lt;/span&gt;&lt;/span&gt;" style="ellipse;whiteSpace=wrap;html=1;" vertex="1" parent="1">
          <mxGeometry x="1100" y="515" width="105" height="70" as="geometry" />
        </mxCell>
        <mxCell id="4iAc5XqQ8IWeMg1gjflS-28" value="" style="endArrow=none;html=1;rounded=0;entryX=0;entryY=0.5;entryDx=0;entryDy=0;exitX=1;exitY=0.5;exitDx=0;exitDy=0;sketch=1;curveFitting=1;jiggle=2;" edge="1" parent="1" source="4iAc5XqQ8IWeMg1gjflS-27" target="4iAc5XqQ8IWeMg1gjflS-23">
          <mxGeometry width="50" height="50" relative="1" as="geometry">
            <mxPoint x="1120" y="500" as="sourcePoint" />
            <mxPoint x="1170" y="450" as="targetPoint" />
          </mxGeometry>
        </mxCell>
        <mxCell id="4iAc5XqQ8IWeMg1gjflS-29" value="&lt;font data-font-src=&quot;https://fonts.googleapis.com/css?family=Architects+Daughter&quot; face=&quot;Architects Daughter&quot; style=&quot;font-size: 17px;&quot;&gt;&lt;b&gt;teach&lt;/b&gt;&lt;/font&gt;" style="rhombus;whiteSpace=wrap;html=1;" vertex="1" parent="1">
          <mxGeometry x="980" y="710" width="80" height="80" as="geometry" />
        </mxCell>
        <mxCell id="4iAc5XqQ8IWeMg1gjflS-30" value="" style="endArrow=none;html=1;rounded=0;entryX=0;entryY=0.25;entryDx=0;entryDy=0;exitX=1;exitY=0.5;exitDx=0;exitDy=0;sketch=1;curveFitting=1;jiggle=2;" edge="1" parent="1" source="4iAc5XqQ8IWeMg1gjflS-29" target="4iAc5XqQ8IWeMg1gjflS-10">
          <mxGeometry width="50" height="50" relative="1" as="geometry">
            <mxPoint x="1180" y="750" as="sourcePoint" />
            <mxPoint x="1230" y="700" as="targetPoint" />
          </mxGeometry>
        </mxCell>
        <mxCell id="4iAc5XqQ8IWeMg1gjflS-31" value="" style="endArrow=none;html=1;rounded=0;entryX=0;entryY=0.5;entryDx=0;entryDy=0;exitX=1;exitY=0.5;exitDx=0;exitDy=0;sketch=1;curveFitting=1;jiggle=2;" edge="1" parent="1" source="xze8CUG9NXCSpc5zPzv0-22" target="4iAc5XqQ8IWeMg1gjflS-29">
          <mxGeometry width="50" height="50" relative="1" as="geometry">
            <mxPoint x="1180" y="750" as="sourcePoint" />
            <mxPoint x="1230" y="700" as="targetPoint" />
          </mxGeometry>
        </mxCell>
        <mxCell id="4iAc5XqQ8IWeMg1gjflS-32" value="&lt;font face=&quot;Architects Daughter&quot; style=&quot;font-size: 18px;&quot;&gt;&lt;b&gt;topic&lt;/b&gt;&lt;/font&gt;" style="rounded=0;whiteSpace=wrap;html=1;" vertex="1" parent="1">
          <mxGeometry x="80" y="720" width="120" height="60" as="geometry" />
        </mxCell>
        <mxCell id="4iAc5XqQ8IWeMg1gjflS-33" value="&lt;span id=&quot;docs-internal-guid-2c935f62-7fff-73f3-4a3a-77eb24b86415&quot;&gt;&lt;span style=&quot;background-color: transparent; font-variant-numeric: normal; font-variant-east-asian: normal; font-variant-alternates: normal; font-variant-position: normal; vertical-align: baseline; white-space-collapse: preserve;&quot;&gt;&lt;font size=&quot;1&quot; data-font-src=&quot;https://fonts.googleapis.com/css?family=Architects+Daughter&quot; face=&quot;Architects Daughter&quot; style=&quot;&quot;&gt;&lt;b style=&quot;font-size: 16px;&quot;&gt;crs_duration&lt;/b&gt;&lt;/font&gt;&lt;/span&gt;&lt;/span&gt;" style="ellipse;whiteSpace=wrap;html=1;" vertex="1" parent="1">
          <mxGeometry x="140" y="910" width="105" height="70" as="geometry" />
        </mxCell>
        <mxCell id="4iAc5XqQ8IWeMg1gjflS-34" value="&lt;span id=&quot;docs-internal-guid-dbc2118c-7fff-fab5-85fc-dde1d70e0203&quot;&gt;&lt;span style=&quot;background-color: transparent; font-variant-numeric: normal; font-variant-east-asian: normal; font-variant-alternates: normal; font-variant-position: normal; vertical-align: baseline; white-space-collapse: preserve;&quot;&gt;&lt;font data-font-src=&quot;https://fonts.googleapis.com/css?family=Architects+Daughter&quot; face=&quot;Architects Daughter&quot; style=&quot;font-size: 17px;&quot;&gt;&lt;b&gt;top_id&lt;/b&gt;&lt;/font&gt;&lt;/span&gt;&lt;/span&gt;" style="ellipse;whiteSpace=wrap;html=1;" vertex="1" parent="1">
          <mxGeometry x="-70" y="850" width="105" height="70" as="geometry" />
        </mxCell>
        <mxCell id="4iAc5XqQ8IWeMg1gjflS-37" value="" style="endArrow=none;html=1;rounded=0;exitX=0.5;exitY=1;exitDx=0;exitDy=0;entryX=0.5;entryY=0;entryDx=0;entryDy=0;sketch=1;curveFitting=1;jiggle=2;" edge="1" parent="1" source="4iAc5XqQ8IWeMg1gjflS-32" target="4iAc5XqQ8IWeMg1gjflS-33">
          <mxGeometry width="50" height="50" relative="1" as="geometry">
            <mxPoint x="350" y="810" as="sourcePoint" />
            <mxPoint x="690" y="740" as="targetPoint" />
          </mxGeometry>
        </mxCell>
        <mxCell id="4iAc5XqQ8IWeMg1gjflS-38" value="" style="endArrow=none;html=1;rounded=0;entryX=0.5;entryY=1;entryDx=0;entryDy=0;exitX=1;exitY=0;exitDx=0;exitDy=0;sketch=1;curveFitting=1;jiggle=2;" edge="1" parent="1" source="4iAc5XqQ8IWeMg1gjflS-34" target="4iAc5XqQ8IWeMg1gjflS-32">
          <mxGeometry width="50" height="50" relative="1" as="geometry">
            <mxPoint x="100" y="850" as="sourcePoint" />
            <mxPoint x="150" y="800" as="targetPoint" />
          </mxGeometry>
        </mxCell>
        <mxCell id="4iAc5XqQ8IWeMg1gjflS-39" value="&lt;font size=&quot;1&quot; data-font-src=&quot;https://fonts.googleapis.com/css?family=Architects+Daughter&quot; face=&quot;Architects Daughter&quot; style=&quot;&quot;&gt;&lt;b style=&quot;font-size: 15px;&quot;&gt;classified&lt;/b&gt;&lt;/font&gt;" style="rhombus;whiteSpace=wrap;html=1;" vertex="1" parent="1">
          <mxGeometry x="360" y="730" width="80" height="80" as="geometry" />
        </mxCell>
        <mxCell id="4iAc5XqQ8IWeMg1gjflS-40" value="" style="endArrow=none;html=1;rounded=0;entryX=0;entryY=0.5;entryDx=0;entryDy=0;exitX=1;exitY=0.5;exitDx=0;exitDy=0;sketch=1;curveFitting=1;jiggle=2;" edge="1" parent="1" source="4iAc5XqQ8IWeMg1gjflS-39" target="xze8CUG9NXCSpc5zPzv0-22">
          <mxGeometry width="50" height="50" relative="1" as="geometry">
            <mxPoint x="360" y="730" as="sourcePoint" />
            <mxPoint x="410" y="680" as="targetPoint" />
          </mxGeometry>
        </mxCell>
        <mxCell id="4iAc5XqQ8IWeMg1gjflS-41" value="" style="endArrow=none;html=1;rounded=0;exitX=1;exitY=0.5;exitDx=0;exitDy=0;entryX=0;entryY=0.5;entryDx=0;entryDy=0;sketch=1;curveFitting=1;jiggle=2;" edge="1" parent="1" source="4iAc5XqQ8IWeMg1gjflS-32" target="4iAc5XqQ8IWeMg1gjflS-39">
          <mxGeometry width="50" height="50" relative="1" as="geometry">
            <mxPoint x="360" y="730" as="sourcePoint" />
            <mxPoint x="410" y="680" as="targetPoint" />
          </mxGeometry>
        </mxCell>
        <mxCell id="4iAc5XqQ8IWeMg1gjflS-43" value="&lt;font size=&quot;1&quot; style=&quot;&quot; face=&quot;Architects Daughter&quot;&gt;&lt;b style=&quot;font-size: 17px;&quot;&gt;M&lt;/b&gt;&lt;/font&gt;" style="text;html=1;align=center;verticalAlign=middle;resizable=0;points=[];autosize=1;strokeColor=none;fillColor=none;" vertex="1" parent="1">
          <mxGeometry x="720" y="370" width="40" height="30" as="geometry" />
        </mxCell>
        <mxCell id="4iAc5XqQ8IWeMg1gjflS-44" value="&lt;font size=&quot;1&quot; style=&quot;&quot; face=&quot;Architects Daughter&quot;&gt;&lt;b style=&quot;font-size: 17px;&quot;&gt;M&lt;/b&gt;&lt;/font&gt;" style="text;html=1;align=center;verticalAlign=middle;resizable=0;points=[];autosize=1;strokeColor=none;fillColor=none;" vertex="1" parent="1">
          <mxGeometry x="700" y="710" width="40" height="30" as="geometry" />
        </mxCell>
        <mxCell id="4iAc5XqQ8IWeMg1gjflS-45" value="&lt;font size=&quot;1&quot; style=&quot;&quot; face=&quot;Architects Daughter&quot;&gt;&lt;b style=&quot;font-size: 17px;&quot;&gt;1&lt;/b&gt;&lt;/font&gt;" style="text;html=1;align=center;verticalAlign=middle;resizable=0;points=[];autosize=1;strokeColor=none;fillColor=none;" vertex="1" parent="1">
          <mxGeometry x="1320" y="700" width="30" height="30" as="geometry" />
        </mxCell>
        <mxCell id="4iAc5XqQ8IWeMg1gjflS-46" value="&lt;font size=&quot;1&quot; style=&quot;&quot; face=&quot;Architects Daughter&quot;&gt;&lt;b style=&quot;font-size: 17px;&quot;&gt;1&lt;/b&gt;&lt;/font&gt;" style="text;html=1;align=center;verticalAlign=middle;resizable=0;points=[];autosize=1;strokeColor=none;fillColor=none;" vertex="1" parent="1">
          <mxGeometry x="1280" y="390" width="30" height="30" as="geometry" />
        </mxCell>
        <mxCell id="4iAc5XqQ8IWeMg1gjflS-47" value="&lt;font face=&quot;Architects Daughter&quot;&gt;&lt;span style=&quot;font-size: 16px;&quot;&gt;&lt;b&gt;located&lt;/b&gt;&lt;/span&gt;&lt;/font&gt;" style="rhombus;whiteSpace=wrap;html=1;" vertex="1" parent="1">
          <mxGeometry x="1450" y="510" width="80" height="80" as="geometry" />
        </mxCell>
        <mxCell id="4iAc5XqQ8IWeMg1gjflS-48" value="" style="endArrow=none;html=1;rounded=0;entryX=0.5;entryY=1;entryDx=0;entryDy=0;exitX=1;exitY=0;exitDx=0;exitDy=0;sketch=1;curveFitting=1;jiggle=2;" edge="1" parent="1" source="4iAc5XqQ8IWeMg1gjflS-10" target="4iAc5XqQ8IWeMg1gjflS-47">
          <mxGeometry width="50" height="50" relative="1" as="geometry">
            <mxPoint x="1150" y="630" as="sourcePoint" />
            <mxPoint x="1200" y="580" as="targetPoint" />
          </mxGeometry>
        </mxCell>
        <mxCell id="4iAc5XqQ8IWeMg1gjflS-49" value="" style="endArrow=none;html=1;rounded=0;entryX=1;entryY=1;entryDx=0;entryDy=0;exitX=0.5;exitY=0;exitDx=0;exitDy=0;sketch=1;curveFitting=1;jiggle=2;" edge="1" parent="1" source="4iAc5XqQ8IWeMg1gjflS-47" target="xze8CUG9NXCSpc5zPzv0-1">
          <mxGeometry width="50" height="50" relative="1" as="geometry">
            <mxPoint x="1150" y="630" as="sourcePoint" />
            <mxPoint x="1200" y="580" as="targetPoint" />
          </mxGeometry>
        </mxCell>
        <mxCell id="4iAc5XqQ8IWeMg1gjflS-50" value="&lt;font size=&quot;1&quot; style=&quot;&quot; face=&quot;Architects Daughter&quot;&gt;&lt;b style=&quot;font-size: 17px;&quot;&gt;M&lt;/b&gt;&lt;/font&gt;" style="text;html=1;align=center;verticalAlign=middle;resizable=0;points=[];autosize=1;strokeColor=none;fillColor=none;" vertex="1" parent="1">
          <mxGeometry x="1425" y="710" width="40" height="30" as="geometry" />
        </mxCell>
        <mxCell id="4iAc5XqQ8IWeMg1gjflS-51" value="&lt;font size=&quot;1&quot; style=&quot;&quot; face=&quot;Architects Daughter&quot;&gt;&lt;b style=&quot;font-size: 17px;&quot;&gt;1&lt;/b&gt;&lt;/font&gt;" style="text;html=1;align=center;verticalAlign=middle;resizable=0;points=[];autosize=1;strokeColor=none;fillColor=none;" vertex="1" parent="1">
          <mxGeometry x="1420" y="380" width="30" height="30" as="geometry" />
        </mxCell>
        <mxCell id="4iAc5XqQ8IWeMg1gjflS-52" value="&lt;span id=&quot;docs-internal-guid-887ece5b-7fff-2531-cd6d-e7d68904abee&quot;&gt;&lt;span style=&quot;background-color: transparent; font-variant-numeric: normal; font-variant-east-asian: normal; font-variant-alternates: normal; font-variant-position: normal; vertical-align: baseline; white-space-collapse: preserve;&quot;&gt;&lt;font face=&quot;Architects Daughter&quot; style=&quot;font-size: 17px;&quot;&gt;&lt;b&gt;evaluation&lt;/b&gt;&lt;/font&gt;&lt;/span&gt;&lt;/span&gt;" style="ellipse;whiteSpace=wrap;html=1;" vertex="1" parent="1">
          <mxGeometry x="930" y="560" width="105" height="70" as="geometry" />
        </mxCell>
        <mxCell id="4iAc5XqQ8IWeMg1gjflS-53" value="" style="endArrow=none;html=1;rounded=0;exitX=0.5;exitY=1;exitDx=0;exitDy=0;entryX=0.5;entryY=0;entryDx=0;entryDy=0;sketch=1;curveFitting=1;jiggle=2;" edge="1" parent="1" source="4iAc5XqQ8IWeMg1gjflS-52" target="4iAc5XqQ8IWeMg1gjflS-29">
          <mxGeometry width="50" height="50" relative="1" as="geometry">
            <mxPoint x="990" y="650" as="sourcePoint" />
            <mxPoint x="1040" y="600" as="targetPoint" />
          </mxGeometry>
        </mxCell>
        <mxCell id="4iAc5XqQ8IWeMg1gjflS-54" value="&lt;font size=&quot;1&quot; style=&quot;&quot; face=&quot;Architects Daughter&quot;&gt;&lt;b style=&quot;font-size: 17px;&quot;&gt;M&lt;/b&gt;&lt;/font&gt;" style="text;html=1;align=center;verticalAlign=middle;resizable=0;points=[];autosize=1;strokeColor=none;fillColor=none;" vertex="1" parent="1">
          <mxGeometry x="760" y="775" width="40" height="30" as="geometry" />
        </mxCell>
        <mxCell id="4iAc5XqQ8IWeMg1gjflS-55" value="&lt;font size=&quot;1&quot; style=&quot;&quot; face=&quot;Architects Daughter&quot;&gt;&lt;b style=&quot;font-size: 17px;&quot;&gt;M&lt;/b&gt;&lt;/font&gt;" style="text;html=1;align=center;verticalAlign=middle;resizable=0;points=[];autosize=1;strokeColor=none;fillColor=none;" vertex="1" parent="1">
          <mxGeometry x="1242" y="745" width="40" height="30" as="geometry" />
        </mxCell>
        <mxCell id="4iAc5XqQ8IWeMg1gjflS-56" value="&lt;font size=&quot;1&quot; style=&quot;&quot; face=&quot;Architects Daughter&quot;&gt;&lt;b style=&quot;font-size: 17px;&quot;&gt;1&lt;/b&gt;&lt;/font&gt;" style="text;html=1;align=center;verticalAlign=middle;resizable=0;points=[];autosize=1;strokeColor=none;fillColor=none;" vertex="1" parent="1">
          <mxGeometry x="200" y="715" width="30" height="30" as="geometry" />
        </mxCell>
        <mxCell id="4iAc5XqQ8IWeMg1gjflS-59" value="&lt;font size=&quot;1&quot; style=&quot;&quot; face=&quot;Architects Daughter&quot;&gt;&lt;b style=&quot;font-size: 17px;&quot;&gt;M&lt;/b&gt;&lt;/font&gt;" style="text;html=1;align=center;verticalAlign=middle;resizable=0;points=[];autosize=1;strokeColor=none;fillColor=none;" vertex="1" parent="1">
          <mxGeometry x="595" y="741" width="40" height="30" as="geometry" />
        </mxCell>
        <mxCell id="4iAc5XqQ8IWeMg1gjflS-60" value="&lt;font face=&quot;Architects Daughter&quot; style=&quot;font-size: 17px;&quot;&gt;&lt;b&gt;Has&lt;/b&gt;&lt;/font&gt;" style="rhombus;whiteSpace=wrap;html=1;" vertex="1" parent="1">
          <mxGeometry x="960" y="300" width="80" height="80" as="geometry" />
        </mxCell>
        <mxCell id="4iAc5XqQ8IWeMg1gjflS-61" value="" style="endArrow=none;html=1;rounded=0;entryX=0;entryY=0.5;entryDx=0;entryDy=0;exitX=1;exitY=0.5;exitDx=0;exitDy=0;sketch=1;curveFitting=1;jiggle=2;" edge="1" parent="1" source="7z_oLGSOw27XhimUd1Lt-2" target="4iAc5XqQ8IWeMg1gjflS-60">
          <mxGeometry width="50" height="50" relative="1" as="geometry">
            <mxPoint x="890" y="530" as="sourcePoint" />
            <mxPoint x="940" y="480" as="targetPoint" />
          </mxGeometry>
        </mxCell>
        <mxCell id="4iAc5XqQ8IWeMg1gjflS-62" value="" style="endArrow=none;html=1;rounded=0;entryX=0;entryY=0.5;entryDx=0;entryDy=0;exitX=1;exitY=0.5;exitDx=0;exitDy=0;sketch=1;curveFitting=1;jiggle=2;" edge="1" parent="1" source="4iAc5XqQ8IWeMg1gjflS-60" target="xze8CUG9NXCSpc5zPzv0-1">
          <mxGeometry width="50" height="50" relative="1" as="geometry">
            <mxPoint x="890" y="530" as="sourcePoint" />
            <mxPoint x="940" y="480" as="targetPoint" />
          </mxGeometry>
        </mxCell>
        <mxCell id="4iAc5XqQ8IWeMg1gjflS-63" value="&lt;font size=&quot;1&quot; style=&quot;&quot; face=&quot;Architects Daughter&quot;&gt;&lt;b style=&quot;font-size: 17px;&quot;&gt;M&lt;/b&gt;&lt;/font&gt;" style="text;html=1;align=center;verticalAlign=middle;resizable=0;points=[];autosize=1;strokeColor=none;fillColor=none;" vertex="1" parent="1">
          <mxGeometry x="785" y="300" width="40" height="30" as="geometry" />
        </mxCell>
        <mxCell id="4iAc5XqQ8IWeMg1gjflS-64" value="&lt;font size=&quot;1&quot; style=&quot;&quot; face=&quot;Architects Daughter&quot;&gt;&lt;b style=&quot;font-size: 17px;&quot;&gt;1&lt;/b&gt;&lt;/font&gt;" style="text;html=1;align=center;verticalAlign=middle;resizable=0;points=[];autosize=1;strokeColor=none;fillColor=none;" vertex="1" parent="1">
          <mxGeometry x="1247" y="325" width="30" height="30" as="geometry" />
        </mxCell>
      </root>
    </mxGraphModel>
  </diagram>
</mxfile>
